<?xml version="1.0" encoding="UTF-8" standalone="no"?>
<!DOCTYPE svg PUBLIC "-//W3C//DTD SVG 1.1//EN" "http://www.w3.org/Graphics/SVG/1.1/DTD/svg11.dtd">
<svg width="100%" height="100%" viewBox="0 0 3000 436" version="1.1" xmlns="http://www.w3.org/2000/svg" xmlns:xlink="http://www.w3.org/1999/xlink" xml:space="preserve" xmlns:serif="http://www.serif.com/" style="fill-rule:evenodd;clip-rule:evenodd;stroke-linejoin:round;stroke-miterlimit:2;">
    <g transform="matrix(1,0,0,1,-10365.9,-4866.39)">
        <g transform="matrix(1,0,0,0.294763,10365.9,4642.06)">
            <g transform="matrix(4.82703,0,0,16.376,-965.406,-21054.8)">
                <g transform="matrix(1.11328,0,0,1.11328,-873.404,882.845)">
                    <g transform="matrix(0.369032,0,0,0.345967,825.02,-91.2563)">
                        <circle cx="1357.36" cy="1567.36" r="97.363" style="fill:url(#_Linear1);"/>
                    </g>
                    <g transform="matrix(0.452826,0,0,0.452826,716.52,-249.442)">
                        <path d="M1307,1500L1350.48,1500C1368.9,1500 1385.21,1511.89 1390.86,1529.43C1401.78,1563.19 1376.53,1610.22 1316,1596C1370.71,1590.93 1371.48,1548.75 1330.13,1545.34C1317.1,1544.26 1307.07,1533.38 1307.07,1520.3C1307,1509.71 1307,1500 1307,1500Z" style="fill:white;"/>
                    </g>
                </g>
                <g transform="matrix(1,0,0,1,-913.75,418.434)">
                    <path d="M1113.75,920L1113.75,967.718C1113.75,975.285 1116.76,982.543 1122.11,987.893C1127.46,993.244 1134.71,996.25 1142.28,996.25C1151.18,996.25 1161.35,996.25 1170,996.25C1184.5,996.25 1196.25,984.498 1196.25,970.002C1196.25,970.001 1196.25,969.999 1196.25,969.998C1196.25,955.502 1184.5,943.75 1170,943.75L1140,943.75C1136.55,943.75 1133.75,946.551 1133.75,950C1133.75,953.449 1136.55,956.25 1140,956.25L1170,956.25C1177.6,956.25 1183.75,962.405 1183.75,969.998C1183.75,969.999 1183.75,970.001 1183.75,970.002C1183.75,977.595 1177.6,983.75 1170,983.75C1170,983.75 1142.28,983.75 1142.28,983.75C1138.03,983.75 1133.95,982.061 1130.95,979.054C1127.94,976.048 1126.25,971.97 1126.25,967.718L1126.25,920C1126.25,916.551 1123.45,913.75 1120,913.75C1116.55,913.75 1113.75,916.551 1113.75,920Z" style="fill:rgb(35,31,32);"/>
                </g>
                <g transform="matrix(-1,0,0,1,1487.25,418.434)">
                    <path d="M1185.1,956.25L1140,956.25C1132.4,956.25 1126.25,962.405 1126.25,969.998L1126.25,970.002C1126.25,977.595 1132.4,983.75 1140,983.75C1140,983.75 1180,983.75 1180,983.75C1181,983.75 1181.95,983.355 1182.65,982.652C1183.36,981.949 1183.75,980.996 1183.75,980.002C1183.75,980.002 1183.75,979.998 1183.75,979.998C1183.75,977.928 1182.07,976.25 1180,976.25L1140,976.25C1136.55,976.25 1133.75,973.449 1133.75,970C1133.75,966.551 1136.55,963.75 1140,963.75L1180,963.75C1188.98,963.75 1196.25,971.024 1196.25,979.998L1196.25,980.002C1196.25,984.311 1194.54,988.444 1191.49,991.491C1188.44,994.538 1184.31,996.25 1180,996.25C1169.62,996.25 1153.08,996.25 1140,996.25C1125.5,996.25 1113.75,984.498 1113.75,970.002L1113.75,969.998C1113.75,955.502 1125.5,943.75 1140,943.75L1185.1,943.75C1188.55,943.75 1191.35,946.551 1191.35,950C1191.35,953.449 1188.55,956.25 1185.1,956.25Z" style="fill:rgb(35,31,32);"/>
                </g>
                <g transform="matrix(1,0,0,-1,-374.75,2358.43)">
                    <path d="M1185.1,956.25L1140,956.25C1132.4,956.25 1126.25,962.405 1126.25,969.998C1126.25,969.999 1126.25,970.001 1126.25,970.002C1126.25,977.595 1132.4,983.75 1140,983.75C1140,983.75 1180,983.75 1180,983.75C1181,983.75 1181.95,983.355 1182.65,982.652C1183.36,981.949 1183.75,980.996 1183.75,980.002C1183.75,980.002 1183.75,979.998 1183.75,979.998C1183.75,977.928 1182.07,976.25 1180,976.25L1140,976.25C1136.55,976.25 1133.75,973.449 1133.75,970C1133.75,966.551 1136.55,963.75 1140,963.75L1180,963.75C1188.98,963.75 1196.25,971.024 1196.25,979.998C1196.25,979.999 1196.25,980.001 1196.25,980.002C1196.25,984.311 1194.54,988.444 1191.49,991.491C1188.44,994.538 1184.31,996.25 1180,996.25C1169.62,996.25 1153.08,996.25 1140,996.25C1125.5,996.25 1113.75,984.498 1113.75,970.002C1113.75,970.001 1113.75,969.999 1113.75,969.998C1113.75,955.502 1125.5,943.75 1140,943.75L1185.1,943.75C1188.55,943.75 1191.35,946.551 1191.35,950C1191.35,953.449 1188.55,956.25 1185.1,956.25Z" style="fill:rgb(35,31,32);"/>
                </g>
                <g transform="matrix(1,0,0,1,-731.75,418.434)">
                    <path d="M1185.1,943.75L1140,943.75C1125.5,943.75 1113.75,955.502 1113.75,969.998L1113.75,970.002C1113.75,984.498 1125.5,996.25 1140,996.25C1160.69,996.25 1190,996.25 1190,996.25C1193.45,996.25 1196.25,993.449 1196.25,990C1196.25,986.551 1193.45,983.75 1190,983.75L1140,983.75C1132.4,983.75 1126.25,977.595 1126.25,970.002L1126.25,969.998C1126.25,962.405 1132.4,956.25 1140,956.25L1185.1,956.25C1188.55,956.25 1191.35,953.449 1191.35,950C1191.35,946.551 1188.55,943.75 1185.1,943.75Z" style="fill:rgb(35,31,32);"/>
                </g>
                <g transform="matrix(0.595822,1.94289e-16,-1.15762e-16,1,-165.071,443.434)">
                    <path d="M1181.21,965L1181.21,965C1181.21,965.128 1181.22,965.256 1181.24,965.382C1181.39,967.411 1182.85,968.741 1184.62,969.61C1186.49,970.628 1188.98,971.25 1191.7,971.25C1191.7,971.25 1202.19,970.892 1202.19,965C1202.19,959.364 1198.44,953.959 1191.75,949.974C1185.06,945.989 1175.99,943.75 1166.53,943.75C1166.53,943.75 1153.76,943.75 1153.76,943.75C1153.76,943.75 1198.76,929.521 1198.76,929.521C1203.88,927.904 1205.83,924.118 1203.11,921.071C1200.4,918.023 1194.05,916.862 1188.93,918.479L1106.69,944.479C1102.44,945.824 1100.27,948.724 1101.43,951.509C1102.59,954.295 1106.79,956.25 1111.61,956.25L1166.53,956.25C1170.42,956.25 1174.16,957.172 1176.91,958.813C1179.67,960.454 1181.21,962.679 1181.21,965Z" style="fill:rgb(35,31,32);"/>
                </g>
                <g transform="matrix(1,0,0,1,-637.691,418.434)">
                    <path d="M1113.75,920L1113.75,990C1113.75,993.449 1116.55,996.25 1120,996.25C1123.45,996.25 1126.25,993.449 1126.25,990L1126.25,920C1126.25,916.551 1123.45,913.75 1120,913.75C1116.55,913.75 1113.75,916.551 1113.75,920Z" style="fill:rgb(35,31,32);"/>
                </g>
                <g transform="matrix(-1,0,0,1,1843.8,418.434)">
                    <path d="M1178.85,990L1178.85,970.218C1178.85,966.513 1177.38,962.96 1174.76,960.341C1172.14,957.722 1168.59,956.25 1164.88,956.25C1157.04,956.25 1148.07,956.25 1140.22,956.25C1136.51,956.25 1132.96,957.722 1130.34,960.341C1127.72,962.96 1126.25,966.513 1126.25,970.218C1126.25,980.145 1126.25,990 1126.25,990C1126.25,993.449 1123.45,996.25 1120,996.25C1116.55,996.25 1113.75,993.449 1113.75,990C1113.75,990 1113.75,980.145 1113.75,970.218C1113.75,963.198 1116.54,956.466 1121.5,951.502C1126.47,946.539 1133.2,943.75 1140.22,943.75C1148.07,943.75 1157.04,943.75 1164.88,943.75C1171.9,943.75 1178.64,946.539 1183.6,951.502C1188.56,956.466 1191.35,963.198 1191.35,970.218C1191.35,980.145 1191.35,990 1191.35,990C1191.35,993.449 1188.55,996.25 1185.1,996.25C1181.65,996.25 1178.85,993.449 1178.85,990Z" style="fill:rgb(35,31,32);"/>
                </g>
            </g>
        </g>
    </g>
    <defs>
        <linearGradient id="_Linear1" x1="0" y1="0" x2="1" y2="0" gradientUnits="userSpaceOnUse" gradientTransform="matrix(106.49,-162.271,168.802,126.039,1312.02,1654.66)"><stop offset="0" style="stop-color:rgb(0,15,255);stop-opacity:1"/><stop offset="0.27" style="stop-color:rgb(77,10,178);stop-opacity:1"/><stop offset="0.5" style="stop-color:rgb(108,8,147);stop-opacity:1"/><stop offset="0.76" style="stop-color:rgb(142,6,113);stop-opacity:1"/><stop offset="1" style="stop-color:rgb(255,0,0);stop-opacity:1"/></linearGradient>
    </defs>
</svg>
